<svg xmlns="http://www.w3.org/2000/svg" xmlns:xlink="http://www.w3.org/1999/xlink" width="50" zoomAndPan="magnify" viewBox="0 0 37.5 37.499999" height="50" preserveAspectRatio="xMidYMid meet" version="1.0"><defs><clipPath id="e727232706"><path d="M 0 6.957031 L 5.476562 6.957031 L 5.476562 25.460938 L 0 25.460938 Z M 0 6.957031 " clip-rule="nonzero"/></clipPath><clipPath id="aedf0182df"><path d="M 13.914062 20.871094 L 23.09375 20.871094 L 23.09375 30.050781 L 13.914062 30.050781 Z M 13.914062 20.871094 " clip-rule="nonzero"/></clipPath><clipPath id="d5603a7c33"><path d="M 18.503906 20.871094 C 15.96875 20.871094 13.914062 22.925781 13.914062 25.460938 C 13.914062 27.996094 15.96875 30.050781 18.503906 30.050781 C 21.039062 30.050781 23.09375 27.996094 23.09375 25.460938 C 23.09375 22.925781 21.039062 20.871094 18.503906 20.871094 Z M 18.503906 20.871094 " clip-rule="nonzero"/></clipPath><clipPath id="a806165057"><path d="M 31.53125 6.957031 L 37.007812 6.957031 L 37.007812 25.460938 L 31.53125 25.460938 Z M 31.53125 6.957031 " clip-rule="nonzero"/></clipPath><clipPath id="980867f99e"><path d="M 0 6.960938 L 37.003906 6.960938 L 37.003906 12.4375 L 0 12.4375 Z M 0 6.960938 " clip-rule="nonzero"/></clipPath></defs><g clip-path="url(#e727232706)"><path fill="#018d54" d="M 0 6.957031 L 5.476562 6.957031 L 5.476562 25.464844 L 0 25.464844 Z M 0 6.957031 " fill-opacity="1" fill-rule="nonzero"/></g><g clip-path="url(#aedf0182df)"><g clip-path="url(#d5603a7c33)"><path fill="#018d54" d="M 13.914062 20.871094 L 23.09375 20.871094 L 23.09375 30.050781 L 13.914062 30.050781 Z M 13.914062 20.871094 " fill-opacity="1" fill-rule="nonzero"/></g></g><g clip-path="url(#a806165057)"><path fill="#018d54" d="M 31.53125 6.957031 L 37.007812 6.957031 L 37.007812 25.464844 L 31.53125 25.464844 Z M 31.53125 6.957031 " fill-opacity="1" fill-rule="nonzero"/></g><g clip-path="url(#980867f99e)"><path fill="#018d54" d="M 37.003906 6.960938 L 37.003906 12.4375 L -0.0078125 12.4375 L -0.0078125 6.960938 Z M 37.003906 6.960938 " fill-opacity="1" fill-rule="nonzero"/></g></svg>