<svg xmlns="http://www.w3.org/2000/svg" xmlns:xlink="http://www.w3.org/1999/xlink" width="50" zoomAndPan="magnify" viewBox="0 0 37.5 37.499999" height="50" preserveAspectRatio="xMidYMid meet" version="1.0"><defs><clipPath id="b539f6ba10"><path d="M 27 2 L 36.589844 2 L 36.589844 15 L 27 15 Z M 27 2 " clip-rule="nonzero"/></clipPath><clipPath id="4c6d7772f8"><path d="M 27 21 L 36.589844 21 L 36.589844 35 L 27 35 Z M 27 21 " clip-rule="nonzero"/></clipPath><clipPath id="9d42606de8"><path d="M 0.324219 5 L 7 5 L 7 19 L 0.324219 19 Z M 0.324219 5 " clip-rule="nonzero"/></clipPath><clipPath id="b0203a8a7b"><path d="M 0.324219 18 L 7 18 L 7 32 L 0.324219 32 Z M 0.324219 18 " clip-rule="nonzero"/></clipPath></defs><g clip-path="url(#b539f6ba10)"><path fill="#ffffff" d="M 28.941406 7.222656 C 29.539062 8.234375 30.070312 9.335938 30.417969 10.097656 C 31.757812 10.835938 34.316406 12.476562 35.980469 14.988281 C 36.179688 14.777344 36.425781 14.578125 36.636719 14.425781 C 35.507812 9.457031 32.363281 5.242188 28.109375 2.699219 L 27.058594 4.503906 C 27.46875 5.015625 28.226562 6.007812 28.941406 7.222656 Z M 28.941406 7.222656 " fill-opacity="1" fill-rule="nonzero"/></g><path fill="#ffffff" d="M 6.066406 11.722656 C 6.96875 12.152344 9.398438 13.292969 10.96875 13.875 L 18.183594 9.855469 C 18.28125 9.261719 18.429688 8.257812 18.546875 7.046875 C 18.667969 5.828125 18.695312 4.996094 18.699219 4.539062 C 17.875 4.046875 15.09375 2.511719 12.175781 2.320312 C 10.089844 3.101562 8.042969 4.546875 7.328125 5.078125 C 6.894531 5.925781 6.164062 7.894531 6.070312 11.65625 C 6.070312 11.679688 6.070312 11.699219 6.066406 11.722656 Z M 6.066406 11.722656 " fill-opacity="1" fill-rule="nonzero"/><path fill="#ffffff" d="M 19.421875 3.984375 C 20.109375 3.867188 21.257812 3.726562 22.71875 3.726562 C 24.265625 3.726562 25.652344 3.929688 26.324219 4.046875 L 27.355469 2.273438 C 24.769531 0.890625 21.824219 0.101562 18.695312 0.101562 C 16.683594 0.101562 14.75 0.429688 12.9375 1.03125 L 12.757812 1.503906 C 16.238281 1.902344 19.285156 3.878906 19.429688 3.972656 Z M 19.421875 3.984375 " fill-opacity="1" fill-rule="nonzero"/><path fill="#ffffff" d="M 30.488281 25.738281 C 31.972656 24.957031 34.398438 23.296875 35.832031 20.390625 C 36.058594 18.890625 35.894531 17.261719 35.753906 16.320312 C 34.464844 13.859375 32.105469 12.125 30.589844 11.207031 C 30.257812 11.410156 29.589844 11.84375 28.558594 12.597656 C 27.554688 13.328125 26.636719 14.046875 26.121094 14.460938 C 26.269531 16.390625 26.4375 19.710938 26.132812 22.582031 Z M 30.488281 25.738281 " fill-opacity="1" fill-rule="nonzero"/><path fill="#ffffff" d="M 18.515625 10.660156 L 11.570312 14.53125 C 11.550781 15.144531 11.523438 16.386719 11.539062 18.203125 C 11.554688 20.175781 11.644531 21.355469 11.710938 21.953125 C 12.980469 22.996094 15.1875 24.5 18.503906 25.792969 C 19.730469 25.25 23.683594 23.476562 25.265625 22.546875 C 25.566406 19.757812 25.398438 16.453125 25.253906 14.539062 C 24.582031 14.113281 23.234375 13.28125 22.078125 12.613281 C 20.882812 11.921875 19.277344 11.0625 18.515625 10.660156 Z M 18.515625 10.660156 " fill-opacity="1" fill-rule="nonzero"/><g clip-path="url(#4c6d7772f8)"><path fill="#ffffff" d="M 35.980469 21.898438 C 34.304688 24.546875 31.945312 26.007812 30.582031 26.675781 C 30.101562 27.875 28.949219 30.429688 27.113281 32.449219 L 28.15625 34.277344 C 32.390625 31.730469 35.519531 27.523438 36.640625 22.5625 C 36.367188 22.339844 36.144531 22.105469 35.980469 21.898438 Z M 35.980469 21.898438 " fill-opacity="1" fill-rule="nonzero"/></g><path fill="#ffffff" d="M 19.546875 33.125 C 16.246094 34.679688 14.003906 35.039062 12.9375 35.109375 C 12.9375 35.378906 12.9375 35.695312 12.933594 35.976562 C 14.746094 36.574219 16.683594 36.90625 18.695312 36.90625 C 21.84375 36.90625 24.808594 36.109375 27.402344 34.707031 L 26.390625 32.929688 C 25.542969 33.136719 23.238281 33.558594 19.546875 33.125 Z M 19.546875 33.125 " fill-opacity="1" fill-rule="nonzero"/><g clip-path="url(#9d42606de8)"><path fill="#ffffff" d="M 5.191406 12.183594 C 5.195312 12.007812 5.199219 11.832031 5.203125 11.632812 C 5.289062 8.210938 5.886719 6.179688 6.371094 5.078125 L 6.183594 5.023438 C 2.664062 8.296875 0.421875 12.925781 0.304688 18.070312 L 2.011719 18.070312 C 2.328125 17.054688 3.222656 14.65625 5.191406 12.183594 Z M 5.191406 12.183594 " fill-opacity="1" fill-rule="nonzero"/></g><path fill="#ffffff" d="M 18.238281 26.625 C 14.863281 25.316406 12.605469 23.808594 11.261719 22.714844 C 10.28125 23.199219 8.085938 24.296875 6.207031 25.332031 C 6.449219 28.929688 7.414062 30.941406 7.878906 31.71875 C 8.523438 32.207031 10.160156 33.367188 12.324219 34.253906 C 12.546875 34.265625 14.777344 34.3125 18.695312 32.558594 C 18.683594 31.578125 18.621094 29.132812 18.238281 26.625 Z M 18.238281 26.625 " fill-opacity="1" fill-rule="nonzero"/><g clip-path="url(#b0203a8a7b)"><path fill="#ffffff" d="M 1.980469 18.9375 L 0.304688 18.9375 C 0.421875 24.039062 2.628906 28.632812 6.101562 31.902344 L 6.871094 31.679688 C 6.300781 30.570312 5.515625 28.457031 5.328125 25.109375 C 4.5625 24.101562 2.859375 21.660156 1.980469 18.9375 Z M 1.980469 18.9375 " fill-opacity="1" fill-rule="nonzero"/></g></svg>