<svg xmlns="http://www.w3.org/2000/svg" xmlns:xlink="http://www.w3.org/1999/xlink" width="50" zoomAndPan="magnify" viewBox="0 0 37.5 37.499999" height="50" preserveAspectRatio="xMidYMid meet" version="1.0"><defs><clipPath id="fa72dceae2"><path d="M 7.703125 1.851562 L 29.074219 1.851562 L 29.074219 35.15625 L 7.703125 35.15625 Z M 7.703125 1.851562 " clip-rule="nonzero"/></clipPath><clipPath id="51b2ad9611"><path d="M 9 13 L 29.074219 13 L 29.074219 35.15625 L 9 35.15625 Z M 9 13 " clip-rule="nonzero"/></clipPath></defs><g clip-path="url(#fa72dceae2)"><path fill="#d82e2f" d="M 25.789062 1.855469 C 26.707031 1.855469 27.585938 2.21875 28.234375 2.867188 C 28.882812 3.515625 29.246094 4.398438 29.246094 5.316406 C 29.246094 11.707031 29.246094 25.304688 29.246094 31.695312 C 29.246094 32.613281 28.882812 33.496094 28.234375 34.144531 C 27.585938 34.792969 26.707031 35.15625 25.789062 35.15625 C 21.828125 35.15625 15.382812 35.15625 11.421875 35.15625 C 10.503906 35.15625 9.625 34.792969 8.976562 34.144531 C 8.324219 33.496094 7.960938 32.613281 7.960938 31.695312 C 7.960938 25.304688 7.960938 11.707031 7.960938 5.316406 C 7.960938 4.398438 8.324219 3.515625 8.976562 2.867188 C 9.625 2.21875 10.503906 1.855469 11.421875 1.855469 C 15.382812 1.855469 21.828125 1.855469 25.789062 1.855469 Z M 25.789062 1.855469 " fill-opacity="1" fill-rule="evenodd"/></g><g clip-path="url(#51b2ad9611)"><path fill="#d82e2f" d="M 29.246094 13.25 L 29.246094 31.695312 C 29.246094 32.613281 28.882812 33.496094 28.234375 34.144531 C 27.585938 34.792969 26.707031 35.15625 25.789062 35.15625 L 11.421875 35.15625 C 10.757812 35.15625 10.113281 34.964844 9.5625 34.617188 C 13.824219 33 25.367188 27.40625 29.246094 13.25 Z M 29.246094 13.25 " fill-opacity="1" fill-rule="evenodd"/></g></svg>