<svg xmlns="http://www.w3.org/2000/svg" xmlns:xlink="http://www.w3.org/1999/xlink" width="50" zoomAndPan="magnify" viewBox="0 0 37.5 37.499999" height="50" preserveAspectRatio="xMidYMid meet" version="1.0"><defs><clipPath id="f1e9dfd5b7"><path d="M 7.25 4.316406 L 27 4.316406 L 27 35.207031 L 7.25 35.207031 Z M 7.25 4.316406 " clip-rule="nonzero"/></clipPath><clipPath id="afe4a06946"><path d="M 8 14 L 27 14 L 27 35.207031 L 8 35.207031 Z M 8 14 " clip-rule="nonzero"/></clipPath><clipPath id="264ddc97f0"><path d="M 10 1.851562 L 29.757812 1.851562 L 29.757812 32.742188 L 10 32.742188 Z M 10 1.851562 " clip-rule="nonzero"/></clipPath><clipPath id="907ddc1099"><path d="M 11 12 L 29.757812 12 L 29.757812 32.742188 L 11 32.742188 Z M 11 12 " clip-rule="nonzero"/></clipPath></defs><g clip-path="url(#f1e9dfd5b7)"><path fill="#ffed00" d="M 23.792969 4.320312 C 24.640625 4.320312 25.457031 4.65625 26.058594 5.257812 C 26.660156 5.859375 26.996094 6.671875 26.996094 7.523438 C 26.996094 13.445312 26.996094 26.03125 26.996094 31.953125 C 26.996094 32.800781 26.660156 33.617188 26.058594 34.21875 C 25.457031 34.820312 24.640625 35.15625 23.792969 35.15625 C 20.125 35.15625 14.15625 35.15625 10.488281 35.15625 C 9.640625 35.15625 8.824219 34.820312 8.222656 34.21875 C 7.621094 33.617188 7.285156 32.800781 7.285156 31.953125 C 7.285156 26.03125 7.285156 13.445312 7.285156 7.523438 C 7.285156 6.671875 7.621094 5.859375 8.222656 5.257812 C 8.824219 4.65625 9.640625 4.320312 10.488281 4.320312 C 14.15625 4.320312 20.125 4.320312 23.792969 4.320312 Z M 23.792969 4.320312 " fill-opacity="1" fill-rule="evenodd"/></g><g clip-path="url(#afe4a06946)"><path fill="#ffed00" d="M 26.996094 14.871094 L 26.996094 31.953125 C 26.996094 32.800781 26.660156 33.617188 26.058594 34.21875 C 25.457031 34.820312 24.640625 35.15625 23.792969 35.15625 L 10.488281 35.15625 C 9.875 35.15625 9.277344 34.980469 8.769531 34.65625 C 12.714844 33.15625 23.402344 27.980469 26.996094 14.871094 Z M 26.996094 14.871094 " fill-opacity="1" fill-rule="evenodd"/></g><g clip-path="url(#264ddc97f0)"><path fill="#d82e2f" d="M 26.507812 1.855469 C 27.355469 1.855469 28.171875 2.191406 28.773438 2.792969 C 29.375 3.394531 29.710938 4.207031 29.710938 5.058594 C 29.710938 10.980469 29.710938 23.566406 29.710938 29.488281 C 29.710938 30.339844 29.375 31.152344 28.773438 31.753906 C 28.171875 32.355469 27.355469 32.691406 26.507812 32.691406 C 22.839844 32.691406 16.871094 32.691406 13.203125 32.691406 C 12.355469 32.691406 11.539062 32.355469 10.9375 31.753906 C 10.339844 31.152344 10 30.339844 10 29.488281 C 10 23.566406 10 10.980469 10 5.058594 C 10 4.207031 10.339844 3.394531 10.9375 2.792969 C 11.539062 2.191406 12.355469 1.855469 13.203125 1.855469 C 16.871094 1.855469 22.839844 1.855469 26.507812 1.855469 Z M 26.507812 1.855469 " fill-opacity="1" fill-rule="evenodd"/></g><g clip-path="url(#907ddc1099)"><path fill="#d82e2f" d="M 29.710938 12.40625 L 29.710938 29.488281 C 29.710938 30.339844 29.375 31.152344 28.773438 31.753906 C 28.171875 32.355469 27.359375 32.691406 26.507812 32.691406 L 13.203125 32.691406 C 12.589844 32.691406 11.996094 32.515625 11.484375 32.191406 C 15.429688 30.695312 26.121094 25.515625 29.710938 12.40625 Z M 29.710938 12.40625 " fill-opacity="1" fill-rule="evenodd"/></g></svg>