<svg xmlns="http://www.w3.org/2000/svg" xmlns:xlink="http://www.w3.org/1999/xlink" width="50" zoomAndPan="magnify" viewBox="0 0 37.5 37.499999" height="50" preserveAspectRatio="xMidYMid meet" version="1.0"><defs><clipPath id="cbfac499d9"><path d="M 7.714844 1.851562 L 29.179688 1.851562 L 29.179688 35.15625 L 7.714844 35.15625 Z M 7.714844 1.851562 " clip-rule="nonzero"/></clipPath><clipPath id="8b2ff0d8f3"><path d="M 9 13 L 29.179688 13 L 29.179688 35.15625 L 9 35.15625 Z M 9 13 " clip-rule="nonzero"/></clipPath></defs><g clip-path="url(#cbfac499d9)"><path fill="#ffed00" d="M 25.578125 1.855469 C 26.496094 1.855469 27.375 2.21875 28.023438 2.867188 C 28.671875 3.515625 29.035156 4.398438 29.035156 5.316406 C 29.035156 11.707031 29.035156 25.304688 29.035156 31.695312 C 29.035156 32.613281 28.671875 33.496094 28.023438 34.144531 C 27.375 34.792969 26.496094 35.15625 25.578125 35.15625 C 21.617188 35.15625 15.171875 35.15625 11.210938 35.15625 C 10.292969 35.15625 9.414062 34.792969 8.765625 34.144531 C 8.113281 33.496094 7.75 32.613281 7.75 31.695312 C 7.75 25.304688 7.75 11.707031 7.75 5.316406 C 7.75 4.398438 8.113281 3.515625 8.765625 2.867188 C 9.414062 2.21875 10.292969 1.855469 11.210938 1.855469 C 15.171875 1.855469 21.617188 1.855469 25.578125 1.855469 Z M 25.578125 1.855469 " fill-opacity="1" fill-rule="evenodd"/></g><g clip-path="url(#8b2ff0d8f3)"><path fill="#ffed00" d="M 29.035156 13.25 L 29.035156 31.695312 C 29.035156 32.613281 28.671875 33.496094 28.023438 34.144531 C 27.375 34.792969 26.496094 35.15625 25.578125 35.15625 L 11.210938 35.15625 C 10.546875 35.15625 9.902344 34.964844 9.351562 34.617188 C 13.613281 33 25.15625 27.40625 29.035156 13.25 Z M 29.035156 13.25 " fill-opacity="1" fill-rule="evenodd"/></g></svg>